<svg aria-hidden="true" style="position:absolute;width:0;height:0" xmlns="http://www.w3.org/2000/svg" overflow="hidden"><defs><symbol id="icon-Shape-128" viewBox="0 0 32 32"><path fill="var(--color1, #fff)" d="M27.986 8.671h-9.567l3.774-4.518c.06.011.112.034.175.034a1.122 1.122 0 100-2.242c-.618 0-1.124.504-1.124 1.121 0 .136.034.26.077.38l-4.365 5.225h-.411l-4.363-5.225c.042-.12.075-.244.075-.38a1.123 1.123 0 00-2.248 0c0 .62.505 1.121 1.124 1.121.063 0 .117-.023.175-.034l3.775 4.518H5.516a2.245 2.245 0 00-2.246 2.241v15.694a2.244 2.244 0 002.246 2.241h22.47a2.244 2.244 0 002.246-2.241V10.912a2.245 2.245 0 00-2.246-2.241zm-4.495 15.693a2.244 2.244 0 01-2.247 2.242H7.764a2.245 2.245 0 01-2.247-2.242v-11.21a2.245 2.245 0 012.247-2.243h13.48a2.244 2.244 0 012.247 2.243v11.21zm3.311-10.018c-.886 0-1.605-.718-1.605-1.601s.719-1.6 1.605-1.6c.885 0 1.604.716 1.604 1.6s-.719 1.601-1.604 1.601z"/></symbol><symbol id="icon-Shape-153" viewBox="0 0 32 32"><path fill="var(--color1, #fff)" d="M25.717 25.985a95.66 95.66 0 00-3.426-.172c1.143-.994 2.107-2.282 2.816-3.781a2.672 2.672 0 001.907.801 2.707 2.707 0 002.623-2.085 2.728 2.728 0 00-.319-2.062 2.69 2.69 0 00-2.963-1.216c.049-.486.081-.978.081-1.481a.945.945 0 00-.941-.949H8.07a.945.945 0 00-.941.949c0 4.064 1.642 7.656 4.142 9.825-1.25.043-2.409.099-3.421.171-3.524.249-4.549.485-4.549 1.573s1.025 1.324 4.549 1.573c2.389.169 5.562.262 8.932.262s6.543-.093 8.932-.262c3.524-.249 4.548-.486 4.548-1.573s-1.024-1.325-4.548-1.573zm.451-7.229c.007-.005.015-.004.022-.008a1.57 1.57 0 012.165.531c.219.362.285.789.185 1.201s-.351.761-.711.981a1.563 1.563 0 01-2.164-.53c-.018-.03-.045-.048-.067-.073.241-.671.431-1.374.571-2.102zM9.047 16.939h15.474c-.37 5.118-3.699 9.136-7.737 9.136s-7.367-4.018-7.737-9.136zm5.992-3.839l.063.003a.763.763 0 00.711-1.021c-.008-.021-.73-2.119.208-3.866.995-1.664 1.32-3.004.963-3.982-.32-.879-1.041-1.112-1.12-1.135a.765.765 0 00-.94.513c-.118.402.11.828.477.936a.377.377 0 01.164.212c.086.235.177.962-.815 2.63l-.036.061c-.076.126-.158.256-.246.393-1.148 1.774-1.492 3.172-1.022 4.151.378.791 1.175 1.066 1.592 1.105zm4.018.141l.053.002a.715.715 0 00.668-.958c-.004-.012-.408-1.202.106-2.162.661-1.104.862-1.974.612-2.66a1.365 1.365 0 00-.85-.85.724.724 0 00-.881.483.714.714 0 00.399.862c.014.037.117.398-.474 1.39l-.043.073a9.606 9.606 0 01-.131.21c-.767 1.185-.977 2.098-.643 2.792.26.544.793.781 1.185.819z"/></symbol><symbol id="icon-Shape-155" viewBox="0 0 25 32"><path fill="var(--color1, #fff)" d="M22.265 25.286l-5.162-13.923V7.266a2.476 2.476 0 001.675-2.333v-.668c0-1.362-1.118-2.47-2.491-2.47H8.92c-1.374 0-2.492 1.107-2.492 2.47v.668c0 1.077.699 1.995 1.675 2.332v4.098L2.951 25.259a2.449 2.449 0 00.24 2.311 2.495 2.495 0 002.068 1.09h14.689c.831 0 1.604-.407 2.067-1.092s.553-1.547.25-2.283zm-13.66-3.157c0-.467.38-.842.847-.842.471 0 .851.375.851.842 0 .466-.38.841-.851.841a.844.844 0 01-.847-.841zm5.473.734c.811 0 1.468.653 1.468 1.453 0 .803-.656 1.456-1.468 1.456s-1.467-.653-1.467-1.456c0-.8.655-1.453 1.467-1.453zm-1.249-3.188c0-.576.474-1.048 1.059-1.048.582 0 1.056.472 1.056 1.048 0 .578-.474 1.048-1.056 1.048-.585 0-1.059-.47-1.059-1.048zM9.75 11.653V6.586l-.007-.817h-.824a.841.841 0 01-.844-.836v-.668a.84.84 0 01.844-.836h7.367a.84.84 0 01.843.836v.668a.842.842 0 01-.851.836h-.824v5.884l1.446 3.899-.056.05c-1.076 1.108-8.94 1.236-8.94 1.236h-.076l1.922-5.185zm2.279 3.146c.631 0 1.146-.511 1.146-1.139 0-.626-.515-1.137-1.146-1.137-.635 0-1.149.512-1.149 1.137 0 .628.514 1.139 1.149 1.139z"/></symbol><symbol id="icon-Shape-170" viewBox="0 0 34 32"><path fill="var(--color1, #fff)" d="M31.026 3.049a.291.291 0 00-.309-.029L2.852 17.128a.283.283 0 00.043.525l8.819 2.777a.282.282 0 00.278-.06L25.405 9.017 15.102 21.091a.283.283 0 00.136.455l10.35 3.122a.292.292 0 00.225-.026.292.292 0 00.137-.18l5.174-21.123a.286.286 0 00-.1-.291zM18.268 24.632l-2.86-.871a.286.286 0 00-.372.272v5.346a.284.284 0 00.288.284.288.288 0 00.242-.133l2.86-4.474c.048-.074.058-.168.027-.25s-.1-.147-.185-.174z"/></symbol></defs></svg>