<svg xmlns="http://www.w3.org/2000/svg" width="42" height="42"><path fill="#FED136" paint-order="stroke fill markers" fill-rule="evenodd" d="M4.508 18.331h33.04l-1.27 22.027H5.778L4.51 18.33zm.689-6.883H36.86a3.442 3.442 0 110 6.883H5.197a3.442 3.442 0 010-6.883zM3.132 18.33h35.793v1.376H3.132v-1.376zm17.896 6.883c.76 0 1.377.616 1.377 1.377v8.26a1.377 1.377 0 01-2.753 0v-8.26c0-.76.616-1.377 1.376-1.377zm8.26 0c.76 0 1.377.616 1.377 1.377v8.26a1.377 1.377 0 01-2.754 0v-8.26c0-.76.617-1.377 1.377-1.377zm-16.52 0c.76 0 1.377.616 1.377 1.377v8.26a1.377 1.377 0 01-2.753 0v-8.26c0-.76.616-1.377 1.376-1.377zM24.814 2.641c1.317-.76 3-.31 3.761 1.007l4.13 7.154a2.753 2.753 0 11-4.769 2.753l-4.13-7.153c-.76-1.317-.309-3 1.008-3.761zm-7.572 0c-1.317-.76-3-.31-3.76 1.007l-4.13 7.154a2.753 2.753 0 104.768 2.753l4.13-7.153c.76-1.317.31-3-1.008-3.761z"/></svg>