<svg xmlns="http://www.w3.org/2000/svg" width="43" height="37"><path fill="#FED136" paint-order="stroke fill markers" fill-rule="evenodd" d="M8.356 1.9h26.908A4.036 4.036 0 0139.3 5.936v17.49a4.036 4.036 0 01-4.036 4.036H8.356a4.036 4.036 0 01-4.036-4.036V5.936A4.036 4.036 0 018.356 1.9zM4.32 24.771h4.036v2.69H4.32v-2.69zm30.944 0H39.3v2.69h-4.036v-2.69zM8.356 5.936h26.908v24.216H8.356V5.936zM4.32 30.152H39.3a2.691 2.691 0 012.69 2.691c0 1.486-2.55 2.69-4.036 2.69H5.666c-1.486 0-4.036-1.204-4.036-2.69a2.691 2.691 0 012.69-2.691zm13.454 2.691h8.072c.743 0 1.346.301 1.346.673 0 .371-.603.672-1.346.672h-8.072c-.743 0-1.345-.3-1.345-.672 0-.372.602-.673 1.345-.673zm-4.997-15.159l1.894-1.903a1.335 1.335 0 011.894 0l4.735 4.757a1.35 1.35 0 010 1.902l-1.894 1.903a1.335 1.335 0 01-1.894 0l-4.735-4.756a1.35 1.35 0 010-1.903zm16.167-7.447l1.895 1.902a1.35 1.35 0 010 1.903L20.42 24.506a1.335 1.335 0 01-1.895 0l-1.894-1.902a1.35 1.35 0 010-1.903L27.05 10.237a1.335 1.335 0 011.894 0z"/></svg>