<svg xmlns="http://www.w3.org/2000/svg" width="31" height="40"><path fill="#FED136" paint-order="stroke fill markers" fill-rule="evenodd" d="M15.685 1.633c5.154 0 9.333 3.656 9.333 8.166v19.833c0 4.51-4.179 8.166-9.333 8.166-5.155 0-9.333-3.656-9.333-8.166V9.8c0-4.51 4.178-8.166 9.333-8.166zm0 4.666c2.577 0 4.666 1.568 4.666 3.5v8.166c0 1.934-2.089 3.5-4.666 3.5-2.577 0-4.667-1.566-4.667-3.5V9.8c0-1.932 2.09-3.5 4.667-3.5zm-10.5 12.833h21a3.5 3.5 0 013.5 3.5v12.833a3.5 3.5 0 01-3.5 3.5h-21a3.5 3.5 0 01-3.5-3.5V22.632a3.5 3.5 0 013.5-3.5zm10.5 5.833a2.333 2.333 0 012.333 2.333v5.833a2.333 2.333 0 11-4.666 0v-5.833a2.333 2.333 0 012.333-2.333zm0-2.333a4.666 4.666 0 110 9.333 4.666 4.666 0 010-9.333z"/></svg>